# xmcd
#
# Track frame offsets:
# 150
# 21615
# 42514
# 57317
# 74285
# 95350
# 111735
# 129060
# 149775
# 170092
# 188795
# 208747
# 225580
# 239242
# 257372
# 277037
#
# Disc length: 3949 seconds
#
#
# Revision: 0
# Processed by: cddbd v1.5.2PL0 Copyright (c) Steve Scherf et al.
# Submitted via: FreeRIP 2.96 
#
DISCID=010f6b10
DTITLE=Daniel - 
DYEAR=1900
DGENRE=Country
TTITLE0=Adoro amar você
TTITLE1=Declaração de amor
TTITLE2=Dengo
TTITLE3=Suadade faz doer
TTITLE4=Doendo de saudade
TTITLE5=Não empurro não
TTITLE6=Quem ama é que faz
TTITLE7=Pra falar a verdade
TTITLE8=É quando você me deixou
TTITLE9=Eu quero ter felicidade
TTITLE10=Me guardo pra você
TTITLE11=Uma  noite
TTITLE12=Peão apaixonado
TTITLE13=Daqui não saio não
TTITLE14=A paixão acaba sempre assim
TTITLE15=Paixão caipira
EXTD=
EXTT0=
EXTT1=
EXTT2=
EXTT3=
EXTT4=
EXTT5=
EXTT6=
EXTT7=
EXTT8=
EXTT9=
EXTT10=
EXTT11=
EXTT12=
EXTT13=
EXTT14=
EXTT15=
PLAYORDER=
